<svg xmlns="http://www.w3.org/2000/svg" xmlns:xlink="http://www.w3.org/1999/xlink" width="800" zoomAndPan="magnify" viewBox="0 0 600 599.999999" height="800" preserveAspectRatio="xMidYMid meet" version="1.0"><defs><g/><clipPath id="id1"><path d="M 267 122 L 312 122 L 312 160.996094 L 267 160.996094 Z M 267 122 " clip-rule="nonzero"/></clipPath><clipPath id="id2"><path d="M 265.109375 114 L 273 114 L 273 122 L 265.109375 122 Z M 265.109375 114 " clip-rule="nonzero"/></clipPath></defs><g fill="rgb(100%, 56.079102%, 65.098572%)" fill-opacity="1"><g transform="translate(1.52673, 365.361071)"><g><path d="M 47.699219 0 C 49.332031 0 50.695312 -1.089844 50.695312 -2.726562 L 53.96875 -49.0625 L 69.230469 -49.0625 L 72.5 -2.726562 C 72.5 -1.089844 73.863281 0 75.5 0 L 115.839844 0 C 117.476562 0 118.566406 -1.089844 118.292969 -2.726562 L 95.398438 -181.253906 C 94.578125 -186.976562 90.492188 -190.792969 84.765625 -190.792969 L 38.429688 -190.792969 C 32.707031 -190.792969 28.617188 -186.976562 27.800781 -181.253906 L 4.90625 -2.726562 C 4.632812 -1.089844 5.722656 0 7.359375 0 Z M 55.875 -76.316406 L 61.054688 -150.453125 L 62.144531 -150.453125 L 67.324219 -76.316406 Z M 55.875 -76.316406 "/></g></g></g><g fill="rgb(100%, 56.079102%, 65.098572%)" fill-opacity="1"><g transform="translate(124.724718, 365.361071)"><g><path d="M 9.539062 -2.726562 C 9.539062 -1.089844 10.628906 0 12.265625 0 L 53.148438 0 C 54.785156 0 55.875 -1.089844 55.875 -2.726562 L 55.875 -163.539062 L 56.421875 -163.539062 L 65.140625 -151.273438 L 65.6875 -151.273438 L 74.410156 -163.539062 L 74.953125 -163.539062 L 74.953125 -2.726562 C 74.953125 -1.089844 76.046875 0 77.679688 0 L 118.566406 0 C 120.199219 0 121.289062 -1.089844 121.289062 -2.726562 L 121.289062 -179.890625 C 121.289062 -186.433594 116.929688 -190.792969 110.386719 -190.792969 L 79.589844 -190.792969 C 77.953125 -190.792969 76.316406 -189.976562 75.226562 -188.613281 L 65.414062 -177.164062 L 55.601562 -188.613281 C 54.511719 -189.976562 52.878906 -190.792969 51.242188 -190.792969 L 20.441406 -190.792969 C 13.902344 -190.792969 9.539062 -186.433594 9.539062 -179.890625 Z M 9.539062 -2.726562 "/></g></g></g><g fill="rgb(100%, 56.079102%, 65.098572%)" fill-opacity="1"><g transform="translate(255.554464, 365.361071)"><g><path d="M 12.265625 -188.070312 L 12.265625 -2.726562 C 12.265625 -1.089844 13.355469 0 14.992188 0 L 55.875 0 C 57.511719 0 58.601562 -1.089844 58.601562 -2.726562 L 58.601562 -188.070312 C 58.601562 -189.703125 57.511719 -190.792969 55.875 -190.792969 L 14.992188 -190.792969 C 13.355469 -190.792969 12.265625 -189.703125 12.265625 -188.070312 Z M 12.265625 -188.070312 "/></g></g></g><g fill="rgb(100%, 56.079102%, 65.098572%)" fill-opacity="1"><g transform="translate(326.420559, 365.361071)"><g><path d="M 40.882812 -192.15625 C 21.261719 -192.15625 8.175781 -179.074219 8.175781 -159.449219 L 8.175781 -31.34375 C 8.175781 -11.71875 21.261719 1.363281 40.882812 1.363281 L 87.21875 1.363281 C 106.84375 1.363281 119.929688 -11.71875 119.929688 -31.34375 L 119.929688 -70.867188 C 119.929688 -77.40625 115.566406 -81.769531 109.023438 -81.769531 L 66.777344 -81.769531 C 65.140625 -81.769531 64.050781 -80.679688 64.050781 -79.042969 L 64.050781 -57.238281 C 64.050781 -55.601562 65.140625 -54.511719 66.777344 -54.511719 L 73.59375 -54.511719 L 73.59375 -31.34375 C 73.59375 -28.074219 71.410156 -25.894531 68.140625 -25.894531 L 59.964844 -25.894531 C 56.691406 -25.894531 54.511719 -28.074219 54.511719 -31.34375 L 54.511719 -159.449219 C 54.511719 -162.71875 56.691406 -164.902344 59.964844 -164.902344 L 68.140625 -164.902344 C 71.410156 -164.902344 73.59375 -162.71875 73.59375 -159.449219 L 73.59375 -128.105469 C 73.59375 -126.46875 74.683594 -125.378906 76.316406 -125.378906 L 117.203125 -125.378906 C 118.835938 -125.378906 119.929688 -126.46875 119.929688 -128.105469 L 119.929688 -159.449219 C 119.929688 -179.074219 106.84375 -192.15625 87.21875 -192.15625 Z M 40.882812 -192.15625 "/></g></g></g><g fill="rgb(100%, 56.079102%, 65.098572%)" fill-opacity="1"><g transform="translate(453.161852, 365.361071)"><g><path d="M 47.699219 0 C 49.332031 0 50.695312 -1.089844 50.695312 -2.726562 L 53.96875 -49.0625 L 69.230469 -49.0625 L 72.5 -2.726562 C 72.5 -1.089844 73.863281 0 75.5 0 L 115.839844 0 C 117.476562 0 118.566406 -1.089844 118.292969 -2.726562 L 95.398438 -181.253906 C 94.578125 -186.976562 90.492188 -190.792969 84.765625 -190.792969 L 38.429688 -190.792969 C 32.707031 -190.792969 28.617188 -186.976562 27.800781 -181.253906 L 4.90625 -2.726562 C 4.632812 -1.089844 5.722656 0 7.359375 0 Z M 55.875 -76.316406 L 61.054688 -150.453125 L 62.144531 -150.453125 L 67.324219 -76.316406 Z M 55.875 -76.316406 "/></g></g></g><g clip-path="url(#id1)"><path fill="rgb(100%, 56.079102%, 65.098572%)" d="M 311.683594 152.355469 C 311.527344 146.484375 311.3125 140.613281 311.050781 134.746094 C 310.984375 133.285156 310.914062 131.828125 310.84375 130.367188 C 310.773438 128.9375 310.761719 127.488281 310.617188 126.066406 C 310.488281 124.816406 309.464844 124.3125 308.289062 124.519531 C 307.171875 124.714844 306.113281 125.457031 305.203125 126.085938 C 304.171875 126.796875 303.203125 127.589844 302.226562 128.363281 C 301.738281 128.75 301.246094 129.132812 300.742188 129.496094 C 300.246094 129.851562 299.71875 130.265625 299.160156 130.515625 C 298.929688 130.621094 298.851562 130.5625 298.671875 130.375 C 298.441406 130.132812 298.246094 129.855469 298.039062 129.59375 C 297.582031 129.011719 297.125 128.429688 296.667969 127.851562 C 295.816406 126.769531 294.992188 125.65625 294.097656 124.609375 C 292.632812 122.902344 290.460938 121.265625 288.125 122.367188 C 287.089844 122.855469 286.355469 123.800781 285.699219 124.699219 C 284.863281 125.851562 284.035156 127.011719 283.175781 128.148438 C 282.320312 129.285156 281.460938 130.429688 280.554688 131.527344 C 280.417969 131.6875 280.214844 131.984375 280 132.042969 C 279.808594 132.09375 279.695312 131.941406 279.570312 131.808594 C 279.179688 131.40625 278.816406 130.976562 278.445312 130.550781 C 276.988281 128.886719 275.527344 127.160156 273.644531 125.945312 C 273.1875 125.648438 272.703125 125.394531 272.199219 125.183594 C 271.921875 124.972656 271.621094 124.789062 271.296875 124.644531 C 271.167969 124.585938 271.042969 124.605469 270.953125 124.667969 C 270.640625 124.449219 270.28125 124.3125 269.859375 124.320312 C 269.808594 124.320312 269.761719 124.335938 269.71875 124.359375 C 269.621094 124.339844 269.523438 124.328125 269.417969 124.324219 C 269.191406 124.316406 268.972656 124.453125 268.859375 124.640625 C 267.542969 126.804688 267.273438 129.359375 267.207031 131.832031 C 267.128906 134.722656 267.15625 137.621094 267.214844 140.515625 C 267.273438 143.4375 267.390625 146.359375 267.566406 149.28125 C 267.652344 150.738281 267.753906 152.199219 267.867188 153.65625 C 267.925781 154.398438 267.988281 155.140625 268.054688 155.882812 C 268.105469 156.460938 268.167969 157.042969 268.386719 157.582031 C 268.898438 158.820312 270.09375 159.207031 271.304688 159.515625 C 272.6875 159.871094 274.089844 160.152344 275.503906 160.363281 C 278.292969 160.777344 281.113281 160.953125 283.933594 160.96875 C 286.765625 160.988281 289.59375 160.859375 292.421875 160.683594 C 295.101562 160.523438 297.792969 160.386719 300.457031 160.058594 C 303.070312 159.734375 305.648438 159.199219 308.058594 158.125 C 309.171875 157.628906 310.394531 157.042969 311.097656 156.011719 C 311.820312 154.945312 311.71875 153.578125 311.683594 152.355469 Z M 307.058594 129.570312 C 307.136719 129.433594 307.214844 129.300781 307.296875 129.167969 C 307.25 129.359375 307.199219 129.554688 307.160156 129.75 C 307.136719 129.683594 307.101562 129.625 307.058594 129.570312 Z M 277.703125 148.25 C 277.765625 148.21875 277.820312 148.175781 277.867188 148.109375 C 277.882812 148.09375 277.898438 148.074219 277.914062 148.054688 C 277.929688 148.097656 277.945312 148.144531 277.960938 148.1875 C 277.925781 148.242188 277.894531 148.292969 277.859375 148.34375 C 277.847656 148.359375 277.835938 148.375 277.824219 148.390625 C 277.785156 148.34375 277.742188 148.300781 277.703125 148.25 Z M 272.996094 131.558594 C 272.988281 131.542969 272.984375 131.527344 272.976562 131.511719 C 272.910156 131.34375 272.769531 131.242188 272.617188 131.199219 C 272.609375 131.140625 272.601562 131.078125 272.589844 131.019531 C 272.636719 131.046875 272.683594 131.078125 272.730469 131.105469 C 272.792969 131.144531 272.855469 131.164062 272.914062 131.175781 C 273.027344 131.269531 273.140625 131.363281 273.25 131.460938 C 273.164062 131.464844 273.074219 131.5 272.996094 131.558594 Z M 307.734375 136.875 C 307.769531 136.417969 307.796875 135.957031 307.828125 135.496094 C 307.824219 135.90625 307.820312 136.316406 307.816406 136.726562 C 307.78125 136.765625 307.753906 136.816406 307.734375 136.875 Z M 310.085938 143.164062 C 310.101562 143.6875 310.125 144.210938 310.144531 144.734375 C 310.125 144.726562 310.109375 144.722656 310.089844 144.714844 C 310.082031 144.597656 310.035156 144.5 309.960938 144.421875 C 309.960938 144.308594 309.957031 144.195312 309.953125 144.082031 C 309.964844 143.785156 309.972656 143.484375 309.980469 143.1875 C 310.015625 143.183594 310.050781 143.175781 310.085938 143.164062 Z M 309.410156 128.332031 C 309.421875 128.332031 309.429688 128.328125 309.441406 128.328125 C 309.449219 128.472656 309.457031 128.617188 309.464844 128.761719 C 309.351562 128.628906 309.191406 128.535156 308.992188 128.535156 C 308.984375 128.519531 308.980469 128.503906 308.976562 128.492188 C 309.128906 128.484375 309.285156 128.429688 309.410156 128.332031 Z M 306.875 126.539062 C 307.035156 126.445312 307.199219 126.347656 307.367188 126.253906 C 307.167969 126.417969 306.96875 126.578125 306.769531 126.742188 C 306.480469 126.875 306.195312 127.015625 305.914062 127.160156 C 306.226562 126.945312 306.546875 126.734375 306.875 126.539062 Z M 283.878906 134.730469 C 283.867188 134.746094 283.859375 134.761719 283.851562 134.777344 C 283.699219 134.941406 283.550781 135.101562 283.402344 135.265625 C 283.386719 135.242188 283.367188 135.222656 283.347656 135.207031 C 283.527344 135.050781 283.703125 134.894531 283.878906 134.730469 Z M 274.136719 127.921875 C 274.621094 128.332031 275.082031 128.773438 275.523438 129.230469 C 275.527344 129.238281 275.535156 129.246094 275.542969 129.253906 C 275.527344 129.253906 275.515625 129.261719 275.503906 129.265625 C 275.019531 128.847656 274.546875 128.414062 274.089844 127.964844 C 274.105469 127.953125 274.121094 127.9375 274.136719 127.921875 Z M 279.066406 159.480469 C 279.058594 159.429688 279.042969 159.382812 279.019531 159.339844 C 279.175781 159.359375 279.332031 159.375 279.488281 159.390625 C 279.554688 159.4375 279.617188 159.484375 279.6875 159.527344 C 279.480469 159.515625 279.273438 159.496094 279.066406 159.480469 Z M 296.699219 159.109375 C 296.769531 159.046875 296.835938 158.984375 296.902344 158.921875 C 297.132812 158.847656 297.363281 158.769531 297.589844 158.6875 C 297.292969 158.828125 296.996094 158.96875 296.699219 159.109375 Z M 309.472656 155.878906 C 309.507812 155.824219 309.546875 155.773438 309.578125 155.71875 C 309.667969 155.574219 309.679688 155.40625 309.640625 155.25 C 309.816406 155.257812 310 155.1875 310.140625 155.0625 C 309.984375 155.382812 309.75 155.648438 309.472656 155.878906 Z M 310.34375 154.394531 C 310.253906 154.015625 310.167969 153.632812 310.078125 153.253906 C 310.191406 153.257812 310.304688 153.246094 310.40625 153.203125 C 310.414062 153.601562 310.410156 154.003906 310.34375 154.394531 Z M 310.34375 154.394531 " fill-opacity="1" fill-rule="nonzero"/></g><g clip-path="url(#id2)"><path fill="rgb(100%, 56.079102%, 65.098572%)" d="M 271.691406 116.761719 C 271.660156 116.699219 271.628906 116.632812 271.59375 116.574219 C 271.140625 115.832031 270.378906 115.242188 269.523438 115.035156 C 269.503906 115.027344 269.484375 115.015625 269.46875 115.007812 C 269.019531 114.8125 268.515625 114.710938 268.035156 114.816406 C 267.933594 114.808594 267.832031 114.816406 267.730469 114.832031 C 267.425781 114.808594 267.117188 114.84375 266.839844 114.992188 C 266.515625 115.164062 266.300781 115.464844 266.15625 115.792969 C 265.851562 116.085938 265.609375 116.453125 265.449219 116.847656 C 265.125 117.644531 265.125 118.585938 265.457031 119.390625 C 265.492188 119.972656 265.707031 120.542969 266.160156 120.941406 C 266.632812 121.359375 267.183594 121.457031 267.742188 121.390625 C 268.152344 121.671875 268.644531 121.824219 269.183594 121.777344 C 270.136719 121.695312 270.996094 121.117188 271.507812 120.328125 C 271.707031 120.15625 271.890625 119.953125 272.039062 119.722656 C 272.695312 118.726562 272.40625 117.617188 271.691406 116.761719 Z M 271.691406 116.761719 " fill-opacity="1" fill-rule="nonzero"/></g><path fill="rgb(100%, 56.079102%, 65.098572%)" d="M 293.292969 109.519531 C 292.851562 108.820312 292.273438 108.125 291.519531 107.734375 C 290.082031 106.992188 288.578125 107.820312 287.824219 109.082031 C 287.453125 109.402344 287.15625 109.820312 286.96875 110.3125 C 286.851562 110.628906 286.792969 110.953125 286.785156 111.28125 C 286.78125 111.320312 286.765625 111.355469 286.761719 111.394531 C 286.644531 112.125 286.703125 112.929688 287.128906 113.5625 C 287.164062 113.613281 287.207031 113.660156 287.246094 113.710938 C 287.742188 114.683594 289.011719 115.03125 290.15625 115.0625 C 290.820312 115.152344 291.503906 115.0625 292.09375 114.773438 C 292.46875 114.628906 292.816406 114.421875 293.09375 114.132812 C 293.332031 113.882812 293.5 113.59375 293.609375 113.28125 C 293.796875 113 293.898438 112.683594 293.902344 112.351562 C 293.925781 112.273438 293.945312 112.199219 293.964844 112.125 C 294.15625 111.203125 293.773438 110.289062 293.292969 109.519531 Z M 288.976562 111.808594 C 288.984375 111.621094 289.011719 111.433594 289.074219 111.253906 C 289.0625 111.402344 289.066406 111.546875 289.082031 111.691406 C 289.046875 111.730469 289.011719 111.769531 288.976562 111.808594 Z M 289.714844 113.128906 C 289.785156 113.140625 289.863281 113.140625 289.945312 113.109375 C 290.007812 113.210938 290.078125 113.304688 290.160156 113.390625 C 290.175781 113.410156 290.199219 113.425781 290.21875 113.445312 C 290.035156 113.363281 289.867188 113.253906 289.714844 113.128906 Z M 291.128906 108.351562 C 291.078125 108.375 291.027344 108.402344 290.976562 108.425781 C 290.902344 108.363281 290.808594 108.320312 290.695312 108.324219 C 290.640625 108.261719 290.574219 108.210938 290.503906 108.171875 C 290.722656 108.191406 290.929688 108.253906 291.128906 108.351562 Z M 291.128906 108.351562 " fill-opacity="1" fill-rule="nonzero"/><path fill="rgb(100%, 56.079102%, 65.098572%)" d="M 312.804688 119 C 312.765625 118.867188 312.710938 118.738281 312.648438 118.613281 C 312.660156 118.570312 312.664062 118.527344 312.671875 118.480469 C 312.691406 118.433594 312.714844 118.390625 312.730469 118.339844 C 312.992188 117.546875 312.511719 116.953125 311.921875 116.503906 C 311.679688 116.277344 311.402344 116.078125 311.105469 115.914062 C 310.765625 115.640625 310.382812 115.425781 309.960938 115.335938 C 309.703125 115.28125 309.457031 115.277344 309.214844 115.308594 C 309.121094 115.308594 309.03125 115.320312 308.945312 115.339844 C 308.644531 115.320312 308.339844 115.347656 308.039062 115.453125 C 307.890625 115.503906 307.75 115.574219 307.613281 115.652344 C 307.382812 115.753906 307.183594 115.898438 307.015625 116.078125 C 306.984375 116.109375 306.949219 116.132812 306.917969 116.164062 C 306.855469 116.226562 306.796875 116.292969 306.742188 116.359375 C 306.371094 116.648438 306.082031 117.03125 305.921875 117.480469 C 305.757812 117.945312 305.746094 118.445312 305.867188 118.910156 C 305.769531 119.320312 305.691406 119.765625 305.910156 120.144531 C 306.066406 120.410156 306.332031 120.621094 306.613281 120.785156 C 306.757812 121 306.945312 121.199219 307.195312 121.363281 C 307.726562 121.71875 308.335938 121.8125 308.925781 121.722656 C 308.972656 121.742188 309.023438 121.753906 309.082031 121.746094 C 309.117188 121.742188 309.152344 121.738281 309.1875 121.734375 C 309.191406 121.730469 309.195312 121.730469 309.199219 121.730469 C 309.285156 121.71875 309.375 121.707031 309.460938 121.691406 C 309.550781 121.765625 309.671875 121.804688 309.808594 121.777344 C 310.058594 121.722656 310.300781 121.632812 310.527344 121.527344 C 310.796875 121.476562 311.050781 121.359375 311.273438 121.203125 C 311.335938 121.183594 311.402344 121.171875 311.464844 121.148438 C 312.359375 120.824219 313.085938 119.992188 312.804688 119 Z M 312.804688 119 " fill-opacity="1" fill-rule="nonzero"/><g fill="rgb(0%, 0%, 0%)" fill-opacity="1"><g transform="translate(132.716587, 310.391635)"><g><path d="M 59.347656 -23.53125 C 58.480469 -24.394531 57.011719 -24.394531 56.144531 -23.445312 C 55.972656 -23.273438 32.527344 0.347656 16.957031 -5.535156 C 10.035156 -8.21875 7.09375 -16.265625 5.96875 -24.222656 C 7.527344 -28.03125 10.121094 -34.34375 12.542969 -41.4375 C 12.804688 -42.304688 13.0625 -42.390625 14.101562 -42.476562 C 25.78125 -43.34375 37.371094 -43.773438 44.207031 -43.773438 C 45.503906 -43.773438 46.457031 -44.8125 46.457031 -46.023438 C 46.457031 -47.320312 45.503906 -48.273438 44.207031 -48.273438 C 37.632812 -48.273438 26.820312 -47.753906 15.746094 -47.148438 C 15.3125 -47.0625 14.535156 -47.320312 15.140625 -48.878906 C 19.292969 -60.730469 22.234375 -72.757812 20.417969 -76.390625 C 18.601562 -80.023438 16.175781 -80.109375 14.964844 -79.851562 C 8.566406 -78.636719 3.894531 -62.027344 1.816406 -48.445312 C 1.644531 -47.234375 1.039062 -46.195312 -0.0859375 -46.109375 C -13.667969 -45.074219 -24.828125 -44.292969 -25 -44.292969 C -26.300781 -44.207031 -27.25 -43.167969 -27.164062 -41.871094 C -27.164062 -40.660156 -26.125 -39.621094 -24.828125 -39.707031 L -24.65625 -39.707031 C -24.394531 -39.707031 -13.929688 -40.488281 -0.863281 -41.4375 C -0.433594 -41.523438 0 -41.4375 0.347656 -41.09375 C 0.691406 -40.832031 0.953125 -40.402344 0.953125 -39.96875 C -0.347656 -19.378906 4.84375 -5.277344 15.3125 -1.296875 C 17.5625 -0.519531 19.898438 -0.0859375 22.320312 -0.0859375 C 39.449219 -0.0859375 58.480469 -19.378906 59.433594 -20.242188 C 59.867188 -20.675781 60.039062 -21.28125 60.039062 -21.886719 C 60.039062 -22.492188 59.777344 -23.097656 59.347656 -23.53125 Z M 6.402344 -48.621094 C 8.390625 -61.769531 12.371094 -72.148438 14.707031 -74.832031 C 14.964844 -75.003906 15.3125 -75.089844 15.660156 -75.003906 C 15.917969 -74.917969 16.175781 -74.746094 16.351562 -74.398438 C 17.390625 -72.148438 14.449219 -61.164062 10.035156 -48.101562 C 9.863281 -47.320312 9.257812 -46.714844 8.390625 -46.628906 C 7.960938 -46.542969 7.527344 -46.542969 7.007812 -46.542969 C 6.140625 -46.542969 6.316406 -47.925781 6.402344 -48.53125 Z M 5.363281 -35.035156 C 4.5 -35.035156 4.84375 -41.09375 5.625 -41.957031 C 6.316406 -42.390625 7.179688 -42.476562 7.871094 -42.042969 C 8.652344 -41.351562 6.316406 -35.035156 5.363281 -35.035156 Z M 5.363281 -35.035156 "/></g></g></g><g fill="rgb(0%, 0%, 0%)" fill-opacity="1"><g transform="translate(187.993178, 310.391635)"><g><path d="M 72.582031 -22.234375 C 72.148438 -22.664062 71.632812 -23.011719 71.027344 -23.011719 C 70.421875 -23.097656 69.816406 -22.925781 69.382812 -22.578125 C 69.035156 -22.320312 35.730469 4.152344 7.960938 -7.265625 C 2.335938 -9.601562 2.078125 -12.628906 2.25 -14.273438 C 2.25 -14.535156 2.335938 -14.792969 2.59375 -14.964844 C 2.769531 -15.140625 3.113281 -15.140625 3.375 -15.054688 C 8.996094 -14.707031 14.621094 -16.175781 19.464844 -19.207031 C 23.617188 -21.886719 24.308594 -24.828125 24.050781 -26.730469 C 23.878906 -29.847656 21.367188 -32.355469 18.167969 -32.441406 C 11.332031 -32.789062 -0.0859375 -24.65625 -1.988281 -16.003906 C -2.769531 -12.804688 -2.683594 -6.746094 6.230469 -3.113281 C 11.679688 -0.863281 17.390625 0.171875 23.183594 0.171875 C 48.015625 0.171875 71.027344 -18.082031 72.238281 -19.03125 C 72.667969 -19.378906 73.015625 -19.984375 73.015625 -20.503906 C 73.101562 -21.109375 72.929688 -21.714844 72.582031 -22.234375 Z M 5.363281 -20.332031 C 8.738281 -25 14.359375 -28.117188 17.90625 -27.855469 C 18.859375 -27.855469 19.378906 -27.511719 19.550781 -26.210938 C 19.636719 -25.347656 18.6875 -24.136719 16.957031 -23.011719 C 13.410156 -20.675781 2.769531 -16.871094 5.363281 -20.332031 Z M 5.363281 -20.332031 "/></g></g></g><g fill="rgb(0%, 0%, 0%)" fill-opacity="1"><g transform="translate(257.283564, 310.391635)"><g><path d="M 74.574219 -22.753906 C 74.140625 -23.183594 73.621094 -23.445312 73.015625 -23.445312 C 72.410156 -23.445312 71.804688 -23.183594 71.371094 -22.753906 C 56.40625 -8.132812 29.847656 -5.019531 24.136719 -8.390625 C 20.242188 -10.640625 20.675781 -13.324219 23.445312 -18.6875 C 24.742188 -21.28125 26.210938 -24.308594 23.703125 -26.125 C 21.367188 -27.855469 19.117188 -26.730469 17.128906 -25.695312 C 14.273438 -24.050781 11.074219 -23.183594 7.699219 -23.183594 C 6.921875 -23.183594 6.230469 -24.570312 6.402344 -25.089844 C 11.246094 -35.730469 9.082031 -37.71875 8.304688 -38.496094 C 7.007812 -39.796875 5.019531 -39.707031 2.59375 -38.238281 C -1.382812 -35.382812 -3.113281 -30.277344 -1.730469 -25.519531 C -1.382812 -24.222656 -0.777344 -23.011719 0.0859375 -21.972656 C 0 -21.023438 0.433594 -20.15625 1.296875 -19.722656 C 1.816406 -19.464844 2.421875 -19.464844 3.027344 -19.636719 C 4.5 -18.945312 6.140625 -18.601562 7.785156 -18.601562 C 11.332031 -18.511719 14.792969 -19.292969 17.90625 -21.023438 C 19.117188 -21.628906 19.550781 -21.109375 19.378906 -20.761719 C 17.300781 -16.695312 13.582031 -9.257812 21.886719 -4.410156 C 24.828125 -3.027344 28.117188 -2.421875 31.402344 -2.683594 C 43.515625 -2.683594 62.546875 -7.871094 74.484375 -19.550781 C 74.917969 -19.898438 75.179688 -20.503906 75.179688 -21.109375 C 75.265625 -21.714844 75.003906 -22.320312 74.574219 -22.753906 Z M 2.507812 -27.511719 C 1.988281 -30.019531 2.855469 -32.613281 4.84375 -34.257812 C 4.238281 -31.921875 3.460938 -29.671875 2.507812 -27.425781 Z M 2.507812 -27.511719 "/></g></g></g><g fill="rgb(0%, 0%, 0%)" fill-opacity="1"><g transform="translate(328.21753, 310.391635)"><g><path d="M 72.324219 -20.9375 C 71.457031 -21.886719 69.988281 -21.972656 69.035156 -21.109375 C 68.777344 -20.847656 43.082031 2.25 27.164062 -8.21875 C 20.847656 -12.371094 19.292969 -22.40625 19.292969 -22.492188 C 19.207031 -23.53125 18.425781 -24.308594 17.390625 -24.484375 C 16.4375 -24.570312 15.398438 -24.050781 14.964844 -23.183594 C 10.902344 -14.1875 3.71875 -2.769531 1.730469 -4.066406 C 1.558594 -4.066406 1.210938 -4.410156 0.953125 -5.019531 C -0.0859375 -7.871094 0.257812 -10.988281 1.730469 -13.667969 C 5.019531 -20.417969 11.074219 -25.261719 18.339844 -27.078125 C 19.117188 -27.25 19.722656 -27.855469 19.984375 -28.636719 C 20.242188 -29.414062 19.984375 -30.277344 19.464844 -30.882812 C 18.859375 -31.402344 18.082031 -31.664062 17.300781 -31.488281 C 8.652344 -29.414062 1.46875 -23.53125 -2.421875 -15.570312 C -4.5 -11.679688 -4.757812 -7.007812 -3.113281 -2.941406 C -2.335938 -0.953125 -0.433594 0.433594 1.730469 0.433594 L 1.816406 0.433594 C 6.054688 0.347656 11.332031 -4.929688 14.964844 -10.640625 C 15.398438 -11.332031 16.175781 -11.679688 16.957031 -11.59375 C 17.734375 -11.59375 18.425781 -11.160156 18.773438 -10.46875 C 20.242188 -8.046875 22.234375 -5.96875 24.65625 -4.5 C 43.515625 8.046875 70.9375 -16.695312 72.148438 -17.734375 C 72.582031 -18.167969 72.84375 -18.773438 72.84375 -19.292969 C 72.929688 -19.898438 72.667969 -20.503906 72.324219 -20.9375 Z M 72.324219 -20.9375 "/></g></g></g><g fill="rgb(0%, 0%, 0%)" fill-opacity="1"><g transform="translate(398.113457, 310.391635)"><g><path d="M 71.285156 -22.578125 C 70.9375 -23.011719 70.332031 -23.273438 69.726562 -23.273438 C 69.121094 -23.273438 68.515625 -23.097656 68.085938 -22.664062 C 56.144531 -11.332031 36.507812 -8.910156 22.40625 -8.046875 C 21.972656 -7.960938 21.714844 -8.652344 21.972656 -9.082031 C 23.097656 -10.554688 23.878906 -12.285156 24.222656 -14.101562 C 24.914062 -18.773438 22.148438 -23.273438 17.5625 -24.570312 C 13.496094 -26.210938 9.082031 -23.703125 4.238281 -17.300781 C 3.894531 -16.871094 3.460938 -17.042969 3.546875 -17.5625 C 3.894531 -20.15625 4.238281 -22.664062 4.585938 -25 C 4.757812 -25.867188 4.410156 -26.644531 3.804688 -27.164062 C 3.113281 -27.769531 2.25 -27.855469 1.46875 -27.511719 C 0.691406 -27.25 0.171875 -26.472656 0.0859375 -25.695312 C -0.863281 -18.773438 -1.988281 -11.59375 -3.199219 -4.671875 C -11.074219 11.160156 -19.636719 35.554688 -15.570312 39.363281 C -14.964844 39.96875 -14.101562 40.3125 -13.234375 40.3125 C -12.804688 40.3125 -12.457031 40.3125 -12.023438 40.140625 C -7.09375 38.410156 -2.335938 17.042969 1.210938 -3.460938 C 1.296875 -3.632812 1.296875 -3.71875 1.382812 -3.804688 C 3.804688 -9.171875 7.179688 -14.101562 11.246094 -18.339844 C 12.542969 -19.550781 14.449219 -20.9375 15.917969 -20.332031 C 18.859375 -19.117188 20.15625 -17.300781 19.722656 -14.878906 C 18.601562 -10.902344 15.140625 -7.871094 10.988281 -7.265625 C 10.46875 -7.265625 9.949219 -7.179688 9.429688 -7.179688 C 8.21875 -7.007812 7.351562 -5.96875 7.351562 -4.757812 C 7.527344 -3.546875 8.476562 -2.683594 9.6875 -2.683594 C 10.292969 -2.683594 10.902344 -2.683594 11.507812 -2.769531 C 13.148438 -2.941406 15.054688 -3.027344 17.214844 -3.113281 C 31.835938 -3.980469 56.40625 -5.277344 71.199219 -19.378906 C 71.71875 -19.722656 71.890625 -20.332031 71.976562 -20.9375 C 71.976562 -21.542969 71.71875 -22.148438 71.285156 -22.578125 Z M -12.023438 32.960938 C -10.902344 27.769531 -9.515625 22.664062 -7.699219 17.734375 C -8.738281 22.925781 -10.207031 27.941406 -12.023438 32.960938 Z M -12.023438 32.960938 "/></g></g></g><g fill="rgb(0%, 0%, 0%)" fill-opacity="1"><g transform="translate(466.279268, 310.391635)"><g><path d="M 56.058594 -23.359375 C 55.109375 -24.222656 53.722656 -24.222656 52.859375 -23.273438 C 52.511719 -23.011719 24.484375 5.535156 5.882812 -8.046875 C 0.171875 -12.199219 5.710938 -23.011719 5.796875 -23.097656 C 6.316406 -24.222656 5.882812 -25.519531 4.757812 -26.125 C 3.632812 -26.644531 2.335938 -26.300781 1.730469 -25.175781 C 1.382812 -24.65625 -5.625 -10.902344 3.199219 -4.410156 C 7.265625 -1.382812 12.285156 0.257812 17.390625 0.171875 C 36.074219 0.171875 55.019531 -19.117188 56.058594 -20.15625 C 56.492188 -20.589844 56.75 -21.109375 56.75 -21.714844 C 56.664062 -22.320312 56.492188 -22.925781 56.058594 -23.359375 Z M 0.777344 -30.191406 C 1.125 -30.191406 1.46875 -30.277344 1.816406 -30.453125 C 3.894531 -31.488281 5.710938 -32.875 7.351562 -34.519531 C 8.21875 -35.46875 8.132812 -36.855469 7.265625 -37.71875 C 6.316406 -38.582031 4.929688 -38.582031 4.066406 -37.632812 C 2.769531 -36.335938 1.296875 -35.296875 -0.347656 -34.429688 C -1.210938 -34 -1.730469 -32.875 -1.46875 -31.921875 C -1.210938 -30.882812 -0.257812 -30.191406 0.777344 -30.191406 Z M 0.777344 -30.191406 "/></g></g></g><g fill="rgb(0%, 0%, 0%)" fill-opacity="1"><g transform="translate(519.393247, 310.391635)"><g><path d="M 72.324219 -20.9375 C 71.457031 -21.886719 69.988281 -21.972656 69.035156 -21.109375 C 68.777344 -20.847656 43.082031 2.25 27.164062 -8.21875 C 20.847656 -12.371094 19.292969 -22.40625 19.292969 -22.492188 C 19.207031 -23.53125 18.425781 -24.308594 17.390625 -24.484375 C 16.4375 -24.570312 15.398438 -24.050781 14.964844 -23.183594 C 10.902344 -14.1875 3.71875 -2.769531 1.730469 -4.066406 C 1.558594 -4.066406 1.210938 -4.410156 0.953125 -5.019531 C -0.0859375 -7.871094 0.257812 -10.988281 1.730469 -13.667969 C 5.019531 -20.417969 11.074219 -25.261719 18.339844 -27.078125 C 19.117188 -27.25 19.722656 -27.855469 19.984375 -28.636719 C 20.242188 -29.414062 19.984375 -30.277344 19.464844 -30.882812 C 18.859375 -31.402344 18.082031 -31.664062 17.300781 -31.488281 C 8.652344 -29.414062 1.46875 -23.53125 -2.421875 -15.570312 C -4.5 -11.679688 -4.757812 -7.007812 -3.113281 -2.941406 C -2.335938 -0.953125 -0.433594 0.433594 1.730469 0.433594 L 1.816406 0.433594 C 6.054688 0.347656 11.332031 -4.929688 14.964844 -10.640625 C 15.398438 -11.332031 16.175781 -11.679688 16.957031 -11.59375 C 17.734375 -11.59375 18.425781 -11.160156 18.773438 -10.46875 C 20.242188 -8.046875 22.234375 -5.96875 24.65625 -4.5 C 43.515625 8.046875 70.9375 -16.695312 72.148438 -17.734375 C 72.582031 -18.167969 72.84375 -18.773438 72.84375 -19.292969 C 72.929688 -19.898438 72.667969 -20.503906 72.324219 -20.9375 Z M 72.324219 -20.9375 "/></g></g></g></svg>