<svg xmlns="http://www.w3.org/2000/svg" xmlns:xlink="http://www.w3.org/1999/xlink" width="800" zoomAndPan="magnify" viewBox="0 0 600 599.999999" height="800" preserveAspectRatio="xMidYMid meet" version="1.0"><defs><g/><clipPath id="id1"><path d="M 303 196 L 332 196 L 332 221.058594 L 303 221.058594 Z M 303 196 " clip-rule="nonzero"/></clipPath><clipPath id="id2"><path d="M 302.367188 192 L 307 192 L 307 197 L 302.367188 197 Z M 302.367188 192 " clip-rule="nonzero"/></clipPath><clipPath id="id3"><path d="M 315 187.308594 L 321 187.308594 L 321 193 L 315 193 Z M 315 187.308594 " clip-rule="nonzero"/></clipPath><clipPath id="id4"><path d="M 327 192 L 332.367188 192 L 332.367188 197 L 327 197 Z M 327 192 " clip-rule="nonzero"/></clipPath></defs><rect x="-60" width="720" fill="rgb(100%, 100%, 100%)" y="-60" height="719.999999" fill-opacity="1"/><rect x="-60" width="720" fill="rgb(100%, 100%, 100%)" y="-60" height="719.999999" fill-opacity="1"/><rect x="-60" width="720" fill="rgb(100%, 100%, 100%)" y="-60" height="719.999999" fill-opacity="1"/><rect x="-60" width="720" fill="rgb(100%, 100%, 100%)" y="-60" height="719.999999" fill-opacity="1"/><g fill="rgb(100%, 56.079102%, 65.098572%)" fill-opacity="1"><g transform="translate(136.876985, 349.522815)"><g><path d="M 29.949219 0 C 30.972656 0 31.828125 -0.683594 31.828125 -1.710938 L 33.882812 -30.804688 L 43.464844 -30.804688 L 45.519531 -1.710938 C 45.519531 -0.683594 46.375 0 47.402344 0 L 72.730469 0 C 73.757812 0 74.441406 -0.683594 74.269531 -1.710938 L 59.894531 -113.800781 C 59.382812 -117.394531 56.816406 -119.789062 53.222656 -119.789062 L 24.128906 -119.789062 C 20.535156 -119.789062 17.96875 -117.394531 17.457031 -113.800781 L 3.082031 -1.710938 C 2.910156 -0.683594 3.59375 0 4.621094 0 Z M 35.082031 -47.914062 L 38.332031 -94.460938 L 39.015625 -94.460938 L 42.269531 -47.914062 Z M 35.082031 -47.914062 "/></g></g></g><g fill="rgb(100%, 56.079102%, 65.098572%)" fill-opacity="1"><g transform="translate(214.226708, 349.522815)"><g><path d="M 5.988281 -1.710938 C 5.988281 -0.683594 6.675781 0 7.699219 0 L 33.371094 0 C 34.398438 0 35.082031 -0.683594 35.082031 -1.710938 L 35.082031 -102.675781 L 35.421875 -102.675781 L 40.898438 -94.976562 L 41.242188 -94.976562 L 46.71875 -102.675781 L 47.058594 -102.675781 L 47.058594 -1.710938 C 47.058594 -0.683594 47.746094 0 48.773438 0 L 74.441406 0 C 75.46875 0 76.152344 -0.683594 76.152344 -1.710938 L 76.152344 -112.945312 C 76.152344 -117.050781 73.414062 -119.789062 69.308594 -119.789062 L 49.96875 -119.789062 C 48.941406 -119.789062 47.914062 -119.277344 47.230469 -118.421875 L 41.070312 -111.234375 L 34.910156 -118.421875 C 34.226562 -119.277344 33.199219 -119.789062 32.171875 -119.789062 L 12.835938 -119.789062 C 8.726562 -119.789062 5.988281 -117.050781 5.988281 -112.945312 Z M 5.988281 -1.710938 "/></g></g></g><g fill="rgb(100%, 56.079102%, 65.098572%)" fill-opacity="1"><g transform="translate(296.368024, 349.522815)"><g><path d="M 7.699219 -118.078125 L 7.699219 -1.710938 C 7.699219 -0.683594 8.386719 0 9.410156 0 L 35.082031 0 C 36.109375 0 36.792969 -0.683594 36.792969 -1.710938 L 36.792969 -118.078125 C 36.792969 -119.105469 36.109375 -119.789062 35.082031 -119.789062 L 9.410156 -119.789062 C 8.386719 -119.789062 7.699219 -119.105469 7.699219 -118.078125 Z M 7.699219 -118.078125 "/></g></g></g><g fill="rgb(100%, 56.079102%, 65.098572%)" fill-opacity="1"><g transform="translate(340.861225, 349.522815)"><g><path d="M 25.667969 -120.644531 C 13.347656 -120.644531 5.132812 -112.429688 5.132812 -100.109375 L 5.132812 -19.679688 C 5.132812 -7.359375 13.347656 0.855469 25.667969 0.855469 L 54.761719 0.855469 C 67.082031 0.855469 75.296875 -7.359375 75.296875 -19.679688 L 75.296875 -44.492188 C 75.296875 -48.601562 72.558594 -51.339844 68.453125 -51.339844 L 41.925781 -51.339844 C 40.898438 -51.339844 40.214844 -50.652344 40.214844 -49.628906 L 40.214844 -35.9375 C 40.214844 -34.910156 40.898438 -34.226562 41.925781 -34.226562 L 46.203125 -34.226562 L 46.203125 -19.679688 C 46.203125 -17.625 44.835938 -16.257812 42.78125 -16.257812 L 37.648438 -16.257812 C 35.59375 -16.257812 34.226562 -17.625 34.226562 -19.679688 L 34.226562 -100.109375 C 34.226562 -102.164062 35.59375 -103.53125 37.648438 -103.53125 L 42.78125 -103.53125 C 44.835938 -103.53125 46.203125 -102.164062 46.203125 -100.109375 L 46.203125 -80.429688 C 46.203125 -79.402344 46.890625 -78.71875 47.914062 -78.71875 L 73.585938 -78.71875 C 74.613281 -78.71875 75.296875 -79.402344 75.296875 -80.429688 L 75.296875 -100.109375 C 75.296875 -112.429688 67.082031 -120.644531 54.761719 -120.644531 Z M 25.667969 -120.644531 "/></g></g></g><g fill="rgb(100%, 56.079102%, 65.098572%)" fill-opacity="1"><g transform="translate(420.435609, 349.522815)"><g><path d="M 29.949219 0 C 30.972656 0 31.828125 -0.683594 31.828125 -1.710938 L 33.882812 -30.804688 L 43.464844 -30.804688 L 45.519531 -1.710938 C 45.519531 -0.683594 46.375 0 47.402344 0 L 72.730469 0 C 73.757812 0 74.441406 -0.683594 74.269531 -1.710938 L 59.894531 -113.800781 C 59.382812 -117.394531 56.816406 -119.789062 53.222656 -119.789062 L 24.128906 -119.789062 C 20.535156 -119.789062 17.96875 -117.394531 17.457031 -113.800781 L 3.082031 -1.710938 C 2.910156 -0.683594 3.59375 0 4.621094 0 Z M 35.082031 -47.914062 L 38.332031 -94.460938 L 39.015625 -94.460938 L 42.269531 -47.914062 Z M 35.082031 -47.914062 "/></g></g></g><g clip-path="url(#id1)"><path fill="rgb(100%, 56.079102%, 65.098572%)" d="M 331.476562 215.660156 C 331.375 211.988281 331.246094 208.320312 331.078125 204.652344 C 331.039062 203.742188 330.996094 202.828125 330.949219 201.914062 C 330.90625 201.023438 330.898438 200.117188 330.808594 199.226562 C 330.730469 198.445312 330.089844 198.128906 329.351562 198.261719 C 328.65625 198.382812 327.992188 198.847656 327.425781 199.238281 C 326.78125 199.683594 326.175781 200.179688 325.566406 200.664062 C 325.261719 200.90625 324.953125 201.144531 324.636719 201.371094 C 324.328125 201.59375 324 201.851562 323.648438 202.007812 C 323.503906 202.074219 323.453125 202.035156 323.34375 201.921875 C 323.199219 201.769531 323.078125 201.597656 322.949219 201.433594 C 322.664062 201.070312 322.375 200.707031 322.089844 200.34375 C 321.558594 199.667969 321.042969 198.96875 320.484375 198.316406 C 319.570312 197.25 318.210938 196.226562 316.753906 196.917969 C 316.105469 197.222656 315.644531 197.8125 315.238281 198.375 C 314.710938 199.09375 314.195312 199.816406 313.660156 200.527344 C 313.125 201.238281 312.585938 201.953125 312.019531 202.640625 C 311.9375 202.742188 311.808594 202.925781 311.675781 202.960938 C 311.554688 202.996094 311.484375 202.898438 311.40625 202.816406 C 311.160156 202.566406 310.933594 202.296875 310.703125 202.03125 C 309.792969 200.988281 308.878906 199.910156 307.703125 199.152344 C 307.414062 198.96875 307.113281 198.808594 306.796875 198.675781 C 306.625 198.542969 306.4375 198.429688 306.234375 198.339844 C 306.152344 198.304688 306.074219 198.316406 306.019531 198.355469 C 305.824219 198.21875 305.597656 198.132812 305.335938 198.136719 C 305.304688 198.136719 305.273438 198.148438 305.25 198.160156 C 305.1875 198.148438 305.125 198.140625 305.0625 198.136719 C 304.917969 198.132812 304.78125 198.21875 304.710938 198.335938 C 303.886719 199.691406 303.71875 201.285156 303.679688 202.832031 C 303.628906 204.636719 303.644531 206.449219 303.683594 208.257812 C 303.722656 210.085938 303.792969 211.910156 303.902344 213.738281 C 303.957031 214.648438 304.019531 215.558594 304.089844 216.472656 C 304.128906 216.9375 304.164062 217.398438 304.207031 217.863281 C 304.242188 218.222656 304.277344 218.585938 304.417969 218.925781 C 304.734375 219.699219 305.484375 219.9375 306.238281 220.132812 C 307.105469 220.355469 307.980469 220.53125 308.863281 220.664062 C 310.609375 220.921875 312.371094 221.03125 314.132812 221.042969 C 315.902344 221.054688 317.671875 220.972656 319.4375 220.863281 C 321.113281 220.761719 322.792969 220.679688 324.460938 220.472656 C 326.089844 220.269531 327.703125 219.933594 329.210938 219.265625 C 329.90625 218.953125 330.671875 218.589844 331.109375 217.945312 C 331.5625 217.277344 331.496094 216.421875 331.476562 215.660156 Z M 328.585938 201.417969 C 328.632812 201.332031 328.683594 201.25 328.734375 201.164062 C 328.703125 201.285156 328.675781 201.40625 328.648438 201.527344 C 328.632812 201.488281 328.609375 201.449219 328.585938 201.417969 Z M 310.238281 213.09375 C 310.277344 213.074219 310.3125 213.042969 310.34375 213.003906 C 310.351562 212.992188 310.359375 212.980469 310.371094 212.96875 C 310.382812 213 310.390625 213.027344 310.398438 213.054688 C 310.378906 213.085938 310.355469 213.117188 310.335938 213.152344 C 310.328125 213.160156 310.320312 213.171875 310.316406 213.179688 C 310.289062 213.152344 310.265625 213.125 310.238281 213.09375 Z M 307.296875 202.660156 C 307.292969 202.648438 307.289062 202.640625 307.285156 202.628906 C 307.242188 202.523438 307.15625 202.460938 307.0625 202.4375 C 307.054688 202.398438 307.050781 202.359375 307.042969 202.324219 C 307.070312 202.339844 307.101562 202.359375 307.128906 202.375 C 307.167969 202.402344 307.207031 202.414062 307.246094 202.421875 C 307.316406 202.480469 307.386719 202.539062 307.457031 202.597656 C 307.402344 202.601562 307.34375 202.625 307.296875 202.660156 Z M 329.007812 205.984375 C 329.027344 205.695312 329.046875 205.410156 329.066406 205.121094 C 329.0625 205.378906 329.0625 205.632812 329.058594 205.890625 C 329.035156 205.914062 329.019531 205.945312 329.007812 205.984375 Z M 330.476562 209.914062 C 330.488281 210.242188 330.5 210.566406 330.511719 210.894531 C 330.5 210.890625 330.492188 210.886719 330.480469 210.882812 C 330.472656 210.808594 330.445312 210.746094 330.398438 210.699219 C 330.398438 210.628906 330.394531 210.558594 330.394531 210.488281 C 330.398438 210.300781 330.40625 210.113281 330.410156 209.929688 C 330.433594 209.925781 330.453125 209.917969 330.476562 209.914062 Z M 330.054688 200.644531 C 330.0625 200.644531 330.066406 200.640625 330.074219 200.640625 C 330.078125 200.730469 330.082031 200.820312 330.085938 200.914062 C 330.019531 200.828125 329.917969 200.773438 329.792969 200.769531 C 329.789062 200.761719 329.785156 200.75 329.78125 200.742188 C 329.878906 200.738281 329.976562 200.703125 330.054688 200.644531 Z M 328.472656 199.523438 C 328.570312 199.464844 328.671875 199.402344 328.777344 199.34375 C 328.652344 199.449219 328.53125 199.546875 328.40625 199.648438 C 328.222656 199.734375 328.046875 199.820312 327.867188 199.914062 C 328.066406 199.777344 328.265625 199.644531 328.472656 199.523438 Z M 314.097656 204.644531 C 314.089844 204.652344 314.085938 204.664062 314.082031 204.671875 C 313.988281 204.773438 313.894531 204.875 313.800781 204.976562 C 313.789062 204.964844 313.777344 204.953125 313.765625 204.941406 C 313.878906 204.84375 313.988281 204.746094 314.097656 204.644531 Z M 308.007812 200.386719 C 308.3125 200.644531 308.601562 200.917969 308.875 201.207031 C 308.878906 201.210938 308.882812 201.214844 308.886719 201.21875 C 308.878906 201.222656 308.871094 201.222656 308.863281 201.226562 C 308.5625 200.964844 308.265625 200.695312 307.980469 200.414062 C 307.988281 200.40625 308 200.398438 308.007812 200.386719 Z M 311.089844 220.113281 C 311.085938 220.082031 311.074219 220.050781 311.0625 220.023438 C 311.160156 220.035156 311.257812 220.042969 311.355469 220.054688 C 311.394531 220.082031 311.4375 220.113281 311.480469 220.140625 C 311.347656 220.132812 311.21875 220.121094 311.089844 220.113281 Z M 322.109375 219.878906 C 322.152344 219.839844 322.195312 219.800781 322.238281 219.761719 C 322.382812 219.714844 322.523438 219.664062 322.667969 219.613281 C 322.480469 219.703125 322.296875 219.792969 322.109375 219.878906 Z M 330.09375 217.859375 C 330.117188 217.824219 330.140625 217.792969 330.160156 217.757812 C 330.214844 217.671875 330.222656 217.566406 330.199219 217.46875 C 330.308594 217.472656 330.421875 217.429688 330.511719 217.351562 C 330.414062 217.550781 330.265625 217.714844 330.09375 217.859375 Z M 330.636719 216.933594 C 330.582031 216.695312 330.527344 216.457031 330.472656 216.21875 C 330.542969 216.222656 330.613281 216.214844 330.675781 216.1875 C 330.679688 216.4375 330.679688 216.6875 330.636719 216.933594 Z M 330.636719 216.933594 " fill-opacity="1" fill-rule="nonzero"/></g><g clip-path="url(#id2)"><path fill="rgb(100%, 56.079102%, 65.098572%)" d="M 306.480469 193.410156 C 306.460938 193.371094 306.445312 193.332031 306.421875 193.292969 C 306.136719 192.832031 305.660156 192.460938 305.125 192.332031 C 305.113281 192.328125 305.101562 192.320312 305.089844 192.316406 C 304.8125 192.195312 304.496094 192.132812 304.195312 192.195312 C 304.132812 192.191406 304.070312 192.195312 304.007812 192.207031 C 303.816406 192.191406 303.621094 192.214844 303.449219 192.308594 C 303.246094 192.414062 303.113281 192.601562 303.023438 192.808594 C 302.832031 192.992188 302.679688 193.21875 302.582031 193.464844 C 302.375 193.964844 302.378906 194.550781 302.585938 195.054688 C 302.609375 195.417969 302.742188 195.773438 303.023438 196.023438 C 303.320312 196.285156 303.664062 196.347656 304.011719 196.304688 C 304.269531 196.480469 304.578125 196.578125 304.914062 196.546875 C 305.511719 196.496094 306.046875 196.136719 306.367188 195.640625 C 306.492188 195.53125 306.605469 195.40625 306.699219 195.261719 C 307.109375 194.640625 306.929688 193.945312 306.480469 193.410156 Z M 306.480469 193.410156 " fill-opacity="1" fill-rule="nonzero"/></g><g clip-path="url(#id3)"><path fill="rgb(100%, 56.079102%, 65.098572%)" d="M 319.980469 188.886719 C 319.707031 188.449219 319.34375 188.015625 318.875 187.769531 C 317.976562 187.304688 317.035156 187.824219 316.5625 188.613281 C 316.332031 188.8125 316.148438 189.074219 316.03125 189.378906 C 315.957031 189.578125 315.917969 189.78125 315.914062 189.988281 C 315.910156 190.011719 315.902344 190.035156 315.898438 190.058594 C 315.828125 190.515625 315.863281 191.015625 316.128906 191.410156 C 316.152344 191.445312 316.175781 191.472656 316.203125 191.503906 C 316.511719 192.113281 317.304688 192.328125 318.019531 192.347656 C 318.4375 192.40625 318.863281 192.351562 319.234375 192.171875 C 319.46875 192.078125 319.683594 191.949219 319.859375 191.769531 C 320.007812 191.613281 320.113281 191.433594 320.179688 191.238281 C 320.296875 191.0625 320.359375 190.863281 320.363281 190.65625 C 320.375 190.609375 320.390625 190.5625 320.402344 190.511719 C 320.519531 189.9375 320.28125 189.367188 319.980469 188.886719 Z M 317.285156 190.316406 C 317.289062 190.199219 317.304688 190.082031 317.34375 189.96875 C 317.335938 190.0625 317.339844 190.152344 317.347656 190.246094 C 317.328125 190.269531 317.304688 190.292969 317.285156 190.316406 Z M 317.746094 191.140625 C 317.789062 191.148438 317.835938 191.148438 317.890625 191.128906 C 317.929688 191.191406 317.972656 191.25 318.023438 191.304688 C 318.035156 191.316406 318.046875 191.328125 318.0625 191.339844 C 317.945312 191.289062 317.839844 191.21875 317.746094 191.140625 Z M 318.628906 188.15625 C 318.597656 188.171875 318.566406 188.1875 318.535156 188.203125 C 318.488281 188.164062 318.429688 188.136719 318.359375 188.136719 C 318.324219 188.101562 318.28125 188.070312 318.238281 188.042969 C 318.375 188.054688 318.503906 188.09375 318.628906 188.15625 Z M 318.628906 188.15625 " fill-opacity="1" fill-rule="nonzero"/></g><g clip-path="url(#id4)"><path fill="rgb(100%, 56.079102%, 65.098572%)" d="M 332.175781 194.8125 C 332.152344 194.726562 332.117188 194.648438 332.078125 194.570312 C 332.085938 194.542969 332.085938 194.515625 332.09375 194.488281 C 332.105469 194.457031 332.121094 194.429688 332.128906 194.398438 C 332.292969 193.902344 331.992188 193.53125 331.625 193.253906 C 331.472656 193.109375 331.300781 192.984375 331.113281 192.882812 C 330.902344 192.710938 330.664062 192.578125 330.398438 192.519531 C 330.238281 192.484375 330.082031 192.484375 329.933594 192.503906 C 329.875 192.503906 329.816406 192.511719 329.761719 192.523438 C 329.574219 192.511719 329.386719 192.527344 329.199219 192.59375 C 329.105469 192.625 329.015625 192.671875 328.933594 192.71875 C 328.789062 192.78125 328.664062 192.875 328.558594 192.984375 C 328.539062 193.003906 328.515625 193.019531 328.496094 193.039062 C 328.457031 193.078125 328.421875 193.117188 328.386719 193.160156 C 328.15625 193.339844 327.976562 193.582031 327.875 193.863281 C 327.769531 194.152344 327.765625 194.464844 327.839844 194.753906 C 327.777344 195.011719 327.730469 195.289062 327.867188 195.527344 C 327.964844 195.691406 328.132812 195.824219 328.308594 195.925781 C 328.398438 196.0625 328.515625 196.183594 328.667969 196.289062 C 329.003906 196.507812 329.382812 196.570312 329.753906 196.511719 C 329.78125 196.523438 329.8125 196.53125 329.851562 196.527344 C 329.871094 196.527344 329.894531 196.523438 329.914062 196.519531 C 329.917969 196.519531 329.921875 196.519531 329.921875 196.519531 C 329.976562 196.511719 330.03125 196.503906 330.085938 196.492188 C 330.140625 196.539062 330.21875 196.566406 330.300781 196.546875 C 330.460938 196.511719 330.609375 196.457031 330.753906 196.390625 C 330.921875 196.359375 331.078125 196.285156 331.21875 196.1875 C 331.257812 196.175781 331.300781 196.167969 331.335938 196.15625 C 331.898438 195.949219 332.351562 195.429688 332.175781 194.8125 Z M 332.175781 194.8125 " fill-opacity="1" fill-rule="nonzero"/></g><g fill="rgb(0%, 0%, 0%)" fill-opacity="1"><g transform="translate(219.244385, 315.010351)"><g><path d="M 37.261719 -14.773438 C 36.71875 -15.316406 35.792969 -15.316406 35.25 -14.71875 C 35.140625 -14.609375 20.421875 0.21875 10.644531 -3.476562 C 6.300781 -5.160156 4.453125 -10.210938 3.746094 -15.207031 C 4.726562 -17.597656 6.355469 -21.5625 7.875 -26.015625 C 8.039062 -26.558594 8.203125 -26.613281 8.851562 -26.667969 C 16.1875 -27.210938 23.464844 -27.484375 27.753906 -27.484375 C 28.570312 -27.484375 29.167969 -28.136719 29.167969 -28.894531 C 29.167969 -29.710938 28.570312 -30.308594 27.753906 -30.308594 C 23.628906 -30.308594 16.839844 -29.980469 9.886719 -29.601562 C 9.613281 -29.546875 9.125 -29.710938 9.503906 -30.6875 C 12.113281 -38.128906 13.960938 -45.679688 12.820312 -47.960938 C 11.679688 -50.242188 10.15625 -50.296875 9.398438 -50.132812 C 5.378906 -49.375 2.445312 -38.945312 1.140625 -30.417969 C 1.03125 -29.65625 0.652344 -29.003906 -0.0546875 -28.949219 C -8.582031 -28.296875 -15.589844 -27.808594 -15.699219 -27.808594 C -16.511719 -27.753906 -17.109375 -27.105469 -17.054688 -26.289062 C -17.054688 -25.527344 -16.402344 -24.875 -15.589844 -24.929688 L -15.480469 -24.929688 C -15.316406 -24.929688 -8.746094 -25.417969 -0.542969 -26.015625 C -0.273438 -26.070312 0 -26.015625 0.21875 -25.800781 C 0.433594 -25.636719 0.597656 -25.367188 0.597656 -25.09375 C -0.21875 -12.167969 3.042969 -3.3125 9.613281 -0.816406 C 11.027344 -0.324219 12.492188 -0.0546875 14.011719 -0.0546875 C 24.769531 -0.0546875 36.71875 -12.167969 37.316406 -12.710938 C 37.585938 -12.980469 37.695312 -13.363281 37.695312 -13.742188 C 37.695312 -14.121094 37.53125 -14.503906 37.261719 -14.773438 Z M 4.019531 -30.527344 C 5.269531 -38.78125 7.765625 -45.300781 9.234375 -46.984375 C 9.398438 -47.09375 9.613281 -47.144531 9.832031 -47.09375 C 9.992188 -47.039062 10.15625 -46.929688 10.265625 -46.710938 C 10.917969 -45.300781 9.070312 -38.402344 6.300781 -30.199219 C 6.191406 -29.710938 5.8125 -29.332031 5.269531 -29.277344 C 4.996094 -29.222656 4.726562 -29.222656 4.398438 -29.222656 C 3.855469 -29.222656 3.964844 -30.089844 4.019531 -30.472656 Z M 3.367188 -21.996094 C 2.824219 -21.996094 3.042969 -25.800781 3.53125 -26.34375 C 3.964844 -26.613281 4.507812 -26.667969 4.941406 -26.398438 C 5.429688 -25.964844 3.964844 -21.996094 3.367188 -21.996094 Z M 3.367188 -21.996094 "/></g></g></g><g fill="rgb(0%, 0%, 0%)" fill-opacity="1"><g transform="translate(253.949732, 315.010351)"><g><path d="M 45.570312 -13.960938 C 45.300781 -14.230469 44.972656 -14.449219 44.59375 -14.449219 C 44.214844 -14.503906 43.832031 -14.394531 43.5625 -14.175781 C 43.34375 -14.011719 22.433594 2.605469 4.996094 -4.5625 C 1.464844 -6.027344 1.304688 -7.929688 1.414062 -8.960938 C 1.414062 -9.125 1.464844 -9.289062 1.628906 -9.398438 C 1.738281 -9.503906 1.957031 -9.503906 2.117188 -9.449219 C 5.648438 -9.234375 9.179688 -10.15625 12.222656 -12.058594 C 14.828125 -13.742188 15.261719 -15.589844 15.101562 -16.785156 C 14.992188 -18.738281 13.417969 -20.3125 11.40625 -20.367188 C 7.117188 -20.585938 -0.0546875 -15.480469 -1.25 -10.046875 C -1.738281 -8.039062 -1.683594 -4.238281 3.910156 -1.957031 C 7.332031 -0.542969 10.917969 0.109375 14.558594 0.109375 C 30.144531 0.109375 44.59375 -11.351562 45.355469 -11.949219 C 45.625 -12.167969 45.84375 -12.546875 45.84375 -12.871094 C 45.898438 -13.253906 45.789062 -13.632812 45.570312 -13.960938 Z M 3.367188 -12.765625 C 5.484375 -15.699219 9.015625 -17.652344 11.242188 -17.488281 C 11.839844 -17.488281 12.167969 -17.273438 12.277344 -16.457031 C 12.328125 -15.914062 11.730469 -15.152344 10.644531 -14.449219 C 8.417969 -12.980469 1.738281 -10.589844 3.367188 -12.765625 Z M 3.367188 -12.765625 "/></g></g></g><g fill="rgb(0%, 0%, 0%)" fill-opacity="1"><g transform="translate(297.453624, 315.010351)"><g><path d="M 46.820312 -14.285156 C 46.546875 -14.558594 46.222656 -14.71875 45.84375 -14.71875 C 45.460938 -14.71875 45.082031 -14.558594 44.8125 -14.285156 C 35.414062 -5.105469 18.738281 -3.148438 15.152344 -5.269531 C 12.710938 -6.679688 12.980469 -8.363281 14.71875 -11.730469 C 15.535156 -13.363281 16.457031 -15.261719 14.882812 -16.402344 C 13.417969 -17.488281 12.003906 -16.785156 10.753906 -16.132812 C 8.960938 -15.101562 6.953125 -14.558594 4.835938 -14.558594 C 4.34375 -14.558594 3.910156 -15.425781 4.019531 -15.75 C 7.0625 -22.433594 5.703125 -23.683594 5.214844 -24.171875 C 4.398438 -24.984375 3.148438 -24.929688 1.628906 -24.007812 C -0.867188 -22.214844 -1.957031 -19.011719 -1.085938 -16.023438 C -0.867188 -15.207031 -0.488281 -14.449219 0.0546875 -13.796875 C 0 -13.199219 0.273438 -12.65625 0.816406 -12.382812 C 1.140625 -12.222656 1.519531 -12.222656 1.902344 -12.328125 C 2.824219 -11.894531 3.855469 -11.679688 4.886719 -11.679688 C 7.117188 -11.625 9.289062 -12.113281 11.242188 -13.199219 C 12.003906 -13.578125 12.277344 -13.253906 12.167969 -13.035156 C 10.863281 -10.484375 8.527344 -5.8125 13.742188 -2.769531 C 15.589844 -1.902344 17.652344 -1.519531 19.714844 -1.683594 C 27.320312 -1.683594 39.269531 -4.941406 46.765625 -12.277344 C 47.039062 -12.492188 47.199219 -12.871094 47.199219 -13.253906 C 47.253906 -13.632812 47.09375 -14.011719 46.820312 -14.285156 Z M 1.574219 -17.273438 C 1.25 -18.847656 1.792969 -20.476562 3.042969 -21.507812 C 2.660156 -20.042969 2.171875 -18.628906 1.574219 -17.21875 Z M 1.574219 -17.273438 "/></g></g></g><g fill="rgb(0%, 0%, 0%)" fill-opacity="1"><g transform="translate(341.989436, 315.010351)"><g><path d="M 45.40625 -13.144531 C 44.863281 -13.742188 43.941406 -13.796875 43.34375 -13.253906 C 43.179688 -13.089844 27.050781 1.414062 17.054688 -5.160156 C 13.089844 -7.765625 12.113281 -14.066406 12.113281 -14.121094 C 12.058594 -14.773438 11.570312 -15.261719 10.917969 -15.371094 C 10.320312 -15.425781 9.667969 -15.101562 9.398438 -14.558594 C 6.84375 -8.90625 2.335938 -1.738281 1.085938 -2.554688 C 0.976562 -2.554688 0.761719 -2.769531 0.597656 -3.148438 C -0.0546875 -4.941406 0.164062 -6.898438 1.085938 -8.582031 C 3.148438 -12.820312 6.953125 -15.859375 11.515625 -17 C 12.003906 -17.109375 12.382812 -17.488281 12.546875 -17.980469 C 12.710938 -18.46875 12.546875 -19.011719 12.222656 -19.390625 C 11.839844 -19.714844 11.351562 -19.878906 10.863281 -19.769531 C 5.429688 -18.46875 0.921875 -14.773438 -1.519531 -9.777344 C -2.824219 -7.332031 -2.988281 -4.398438 -1.957031 -1.847656 C -1.464844 -0.597656 -0.273438 0.273438 1.085938 0.273438 L 1.140625 0.273438 C 3.800781 0.21875 7.117188 -3.097656 9.398438 -6.679688 C 9.667969 -7.117188 10.15625 -7.332031 10.644531 -7.277344 C 11.132812 -7.277344 11.570312 -7.007812 11.785156 -6.570312 C 12.710938 -5.050781 13.960938 -3.746094 15.480469 -2.824219 C 27.320312 5.050781 44.539062 -10.484375 45.300781 -11.132812 C 45.570312 -11.40625 45.734375 -11.785156 45.734375 -12.113281 C 45.789062 -12.492188 45.625 -12.871094 45.40625 -13.144531 Z M 45.40625 -13.144531 "/></g></g></g><g fill="rgb(0%, 0%, 0%)" fill-opacity="1"><g transform="translate(385.873517, 315.010351)"><g><path d="M 44.757812 -14.175781 C 44.539062 -14.449219 44.160156 -14.609375 43.777344 -14.609375 C 43.398438 -14.609375 43.019531 -14.503906 42.746094 -14.230469 C 35.25 -7.117188 22.921875 -5.59375 14.066406 -5.050781 C 13.796875 -4.996094 13.632812 -5.429688 13.796875 -5.703125 C 14.503906 -6.625 14.992188 -7.710938 15.207031 -8.851562 C 15.644531 -11.785156 13.90625 -14.609375 11.027344 -15.425781 C 8.472656 -16.457031 5.703125 -14.882812 2.660156 -10.863281 C 2.445312 -10.589844 2.171875 -10.699219 2.226562 -11.027344 C 2.445312 -12.65625 2.660156 -14.230469 2.878906 -15.699219 C 2.988281 -16.242188 2.769531 -16.730469 2.390625 -17.054688 C 1.957031 -17.433594 1.414062 -17.488281 0.921875 -17.273438 C 0.433594 -17.109375 0.109375 -16.621094 0.0546875 -16.132812 C -0.542969 -11.785156 -1.25 -7.277344 -2.007812 -2.933594 C -6.953125 7.007812 -12.328125 22.324219 -9.777344 24.714844 C -9.398438 25.09375 -8.851562 25.3125 -8.308594 25.3125 C -8.039062 25.3125 -7.820312 25.3125 -7.550781 25.203125 C -4.453125 24.117188 -1.464844 10.699219 0.761719 -2.171875 C 0.816406 -2.28125 0.816406 -2.335938 0.867188 -2.390625 C 2.390625 -5.757812 4.507812 -8.851562 7.0625 -11.515625 C 7.875 -12.277344 9.070312 -13.144531 9.992188 -12.765625 C 11.839844 -12.003906 12.65625 -10.863281 12.382812 -9.34375 C 11.679688 -6.84375 9.503906 -4.941406 6.898438 -4.5625 C 6.570312 -4.5625 6.246094 -4.507812 5.921875 -4.507812 C 5.160156 -4.398438 4.617188 -3.746094 4.617188 -2.988281 C 4.726562 -2.226562 5.324219 -1.683594 6.082031 -1.683594 C 6.464844 -1.683594 6.84375 -1.683594 7.222656 -1.738281 C 8.257812 -1.847656 9.449219 -1.902344 10.808594 -1.957031 C 19.988281 -2.5 35.414062 -3.3125 44.703125 -12.167969 C 45.027344 -12.382812 45.136719 -12.765625 45.191406 -13.144531 C 45.191406 -13.523438 45.027344 -13.90625 44.757812 -14.175781 Z M -7.550781 20.695312 C -6.84375 17.433594 -5.976562 14.230469 -4.835938 11.132812 C -5.484375 14.394531 -6.410156 17.542969 -7.550781 20.695312 Z M -7.550781 20.695312 "/></g></g></g><g fill="rgb(0%, 0%, 0%)" fill-opacity="1"><g transform="translate(428.671346, 315.010351)"><g><path d="M 35.195312 -14.664062 C 34.597656 -15.207031 33.730469 -15.207031 33.1875 -14.609375 C 32.96875 -14.449219 15.371094 3.476562 3.695312 -5.050781 C 0.109375 -7.660156 3.585938 -14.449219 3.640625 -14.503906 C 3.964844 -15.207031 3.695312 -16.023438 2.988281 -16.402344 C 2.28125 -16.730469 1.464844 -16.511719 1.085938 -15.804688 C 0.867188 -15.480469 -3.53125 -6.84375 2.007812 -2.769531 C 4.5625 -0.867188 7.710938 0.164062 10.917969 0.109375 C 22.648438 0.109375 34.546875 -12.003906 35.195312 -12.65625 C 35.46875 -12.925781 35.632812 -13.253906 35.632812 -13.632812 C 35.578125 -14.011719 35.46875 -14.394531 35.195312 -14.664062 Z M 0.488281 -18.957031 C 0.707031 -18.957031 0.921875 -19.011719 1.140625 -19.121094 C 2.445312 -19.769531 3.585938 -20.640625 4.617188 -21.671875 C 5.160156 -22.269531 5.105469 -23.136719 4.5625 -23.683594 C 3.964844 -24.226562 3.097656 -24.226562 2.554688 -23.628906 C 1.738281 -22.8125 0.816406 -22.160156 -0.21875 -21.617188 C -0.761719 -21.347656 -1.085938 -20.640625 -0.921875 -20.042969 C -0.761719 -19.390625 -0.164062 -18.957031 0.488281 -18.957031 Z M 0.488281 -18.957031 "/></g></g></g><g fill="rgb(0%, 0%, 0%)" fill-opacity="1"><g transform="translate(462.018899, 315.010351)"><g><path d="M 45.40625 -13.144531 C 44.863281 -13.742188 43.941406 -13.796875 43.34375 -13.253906 C 43.179688 -13.089844 27.050781 1.414062 17.054688 -5.160156 C 13.089844 -7.765625 12.113281 -14.066406 12.113281 -14.121094 C 12.058594 -14.773438 11.570312 -15.261719 10.917969 -15.371094 C 10.320312 -15.425781 9.667969 -15.101562 9.398438 -14.558594 C 6.84375 -8.90625 2.335938 -1.738281 1.085938 -2.554688 C 0.976562 -2.554688 0.761719 -2.769531 0.597656 -3.148438 C -0.0546875 -4.941406 0.164062 -6.898438 1.085938 -8.582031 C 3.148438 -12.820312 6.953125 -15.859375 11.515625 -17 C 12.003906 -17.109375 12.382812 -17.488281 12.546875 -17.980469 C 12.710938 -18.46875 12.546875 -19.011719 12.222656 -19.390625 C 11.839844 -19.714844 11.351562 -19.878906 10.863281 -19.769531 C 5.429688 -18.46875 0.921875 -14.773438 -1.519531 -9.777344 C -2.824219 -7.332031 -2.988281 -4.398438 -1.957031 -1.847656 C -1.464844 -0.597656 -0.273438 0.273438 1.085938 0.273438 L 1.140625 0.273438 C 3.800781 0.21875 7.117188 -3.097656 9.398438 -6.679688 C 9.667969 -7.117188 10.15625 -7.332031 10.644531 -7.277344 C 11.132812 -7.277344 11.570312 -7.007812 11.785156 -6.570312 C 12.710938 -5.050781 13.960938 -3.746094 15.480469 -2.824219 C 27.320312 5.050781 44.539062 -10.484375 45.300781 -11.132812 C 45.570312 -11.40625 45.734375 -11.785156 45.734375 -12.113281 C 45.789062 -12.492188 45.625 -12.871094 45.40625 -13.144531 Z M 45.40625 -13.144531 "/></g></g></g></svg>